<svg width="114" height="121" viewBox="0 0 114 121" fill="none" xmlns="http://www.w3.org/2000/svg">
<path d="M22.57 27.9L19.59 26.81L15.82 31.47L17.52 34.15L16.03 36L8.59 23.85L10.59 21.38L24.14 25.97L22.58 27.9H22.57ZM14.77 29.82L17.74 26.15L11.72 23.96L10.7 23.5L11.36 24.41L14.78 29.83L14.77 29.82Z" fill="#F1F2F2"/>
<path d="M23.58 9.92C24.79 9.11 25.94 8.79001 27.05 8.98001C28.15 9.17001 29.07 9.81001 29.81 10.9C30.51 11.93 30.73 13 30.49 14.09C30.25 15.19 29.54 16.14 28.37 16.94L25.82 18.66L28.58 22.74L26.65 24.04L19.15 12.92L23.59 9.92H23.58ZM27.21 15.46C27.82 15.05 28.18 14.56 28.29 14C28.4 13.43 28.25 12.85 27.84 12.24C27.4 11.59 26.9 11.21 26.34 11.09C25.78 10.97 25.17 11.13 24.54 11.56L22.12 13.19L24.77 17.11L27.22 15.46H27.21Z" fill="#F1F2F2"/>
<path d="M37.54 15.47C36 14.62 34.91 13.19 34.28 11.19C33.65 9.2 33.72 7.41 34.48 5.8C35.25 4.22 36.58 3.12 38.48 2.52C40.4 1.91 42.13 2.02999 43.67 2.88999C45.2 3.74999 46.28 5.18 46.92 7.19C47.56 9.2 47.49 10.99 46.73 12.56C45.97 14.16 44.62 15.26 42.7 15.87C40.8 16.47 39.08 16.34 37.54 15.47ZM44.73 11.8C45.18 10.71 45.16 9.4 44.68 7.9C44.2 6.39 43.47 5.31999 42.47 4.67999C41.47 4.03999 40.33 3.93 39.05 4.34C37.76 4.75 36.9 5.5 36.45 6.59C36 7.68 36.02 8.98999 36.5 10.49C36.98 12 37.72 13.07 38.72 13.71C39.72 14.35 40.86 14.46 42.13 14.06C43.42 13.65 44.28 12.9 44.73 11.81V11.8Z" fill="#F1F2F2"/>
<path d="M54.32 11.48L60.96 11.35L61 13.29L52 13.47L51.73 0.0500031L54.09 0L54.32 11.48Z" fill="#F1F2F2"/>
<path d="M67.14 12.46L74.24 14.28L73.76 16.14L64.44 13.76L67.76 0.779999L77.01 3.14L76.53 5L69.5 3.2L68.59 6.75L75.05 8.4L74.59 10.21L68.13 8.56001L67.13 12.47L67.14 12.46Z" fill="#F1F2F2"/>
<path d="M92.84 11.48L94.67 12.64L87.47 23.98L84.76 22.26L85.12 9.08L79.06 18.63L77.25 17.48L84.45 6.14L87.18 7.87L86.78 21.04L92.85 11.47L92.84 11.48Z" fill="#F1F2F2"/>
<path d="M96.38 34.11L98.07 31.42L94.3 26.76L91.32 27.86L89.83 26.01L103.27 21.28L105.27 23.75L97.94 36.03L96.38 34.1V34.11ZM96.14 26.08L99.11 29.75L102.52 24.32L103.19 23.42L102.16 23.87L96.15 26.08H96.14Z" fill="#F1F2F2"/>
<path d="M13.64 86.34L14.42 87.81L5.94 92.29L5.16 90.82L8.91 88.84L6.73999 84.73L2.98999 86.71L2.20999 85.24L10.69 80.76L11.47 82.23L7.98001 84.07L10.15 88.18L13.64 86.34Z" fill="#F1F2F2"/>
<path d="M10.33 96.57C10.46 95.32 11.09 94.2 12.23 93.22C13.36 92.25 14.56 91.79 15.83 91.84C17.09 91.9 18.18 92.47 19.11 93.55C20.05 94.64 20.45 95.82 20.32 97.07C20.18 98.32 19.54 99.43 18.4 100.41C17.26 101.39 16.06 101.85 14.81 101.8C13.54 101.75 12.44 101.17 11.5 100.08C10.57 99 10.18 97.83 10.31 96.57H10.33ZM14.76 100.27C15.61 100.26 16.46 99.88 17.32 99.14C18.18 98.4 18.68 97.62 18.82 96.78C18.96 95.95 18.72 95.16 18.09 94.43C17.46 93.7 16.72 93.34 15.88 93.35C15.03 93.36 14.18 93.74 13.32 94.48C12.46 95.22 11.96 96.01 11.82 96.84C11.68 97.67 11.93 98.46 12.55 99.19C13.18 99.92 13.92 100.28 14.76 100.27Z" fill="#F1F2F2"/>
<path d="M24.54 111.32L23.25 110.36L24.31 108.35C24.6 107.82 24.71 107.37 24.65 107.03C24.59 106.69 24.35 106.35 23.92 106.03L22.03 104.62L19.71 107.73L18.4 106.75L24.13 99.06L27.94 101.9C28.66 102.44 29.09 103.03 29.23 103.67C29.37 104.31 29.21 104.94 28.74 105.57C28.01 106.55 26.96 106.82 25.6 106.39C26.19 107.08 26.27 107.88 25.81 108.78L24.52 111.32H24.54ZM24.56 104.86C25.11 105.27 25.61 105.47 26.08 105.46C26.55 105.45 26.94 105.22 27.27 104.78C27.83 104.03 27.63 103.31 26.68 102.6L24.66 101.09L22.82 103.56L24.56 104.86Z" fill="#F1F2F2"/>
<path d="M29.26 111.12L30.83 111.65C30.53 112.79 31.04 113.66 32.36 114.27C33.04 114.59 33.61 114.71 34.09 114.64C34.56 114.57 34.9 114.32 35.11 113.88C35.28 113.5 35.29 113.15 35.11 112.82C34.94 112.49 34.58 112.13 34.04 111.73L33 110.97C32.17 110.36 31.64 109.77 31.4 109.18C31.16 108.59 31.2 107.96 31.51 107.28C31.88 106.48 32.47 106 33.26 105.82C34.05 105.64 34.99 105.82 36.07 106.32C38.1 107.27 38.9 108.58 38.49 110.26L36.95 109.75C37.07 109.26 37.01 108.83 36.78 108.46C36.55 108.09 36.12 107.77 35.49 107.47C34.9 107.2 34.4 107.09 33.99 107.16C33.58 107.23 33.28 107.46 33.09 107.86C32.92 108.22 32.91 108.55 33.04 108.83C33.18 109.11 33.53 109.46 34.08 109.86L35.04 110.57C35.94 111.24 36.52 111.89 36.78 112.49C37.04 113.09 37.02 113.72 36.71 114.38C36.3 115.26 35.65 115.79 34.78 115.97C33.9 116.15 32.89 115.97 31.73 115.43C29.58 114.43 28.75 112.99 29.24 111.12H29.26Z" fill="#F1F2F2"/>
<path d="M45.87 119.8L43.97 114.64L42.17 115.9L41.49 118.77L39.87 118.39L42.08 109.03L43.7 109.41L42.57 114.22L47.7 110.36L49.66 110.82L45.2 113.97L47.79 120.26L45.88 119.81L45.87 119.8Z" fill="#F1F2F2"/>
<path d="M58.27 120.86L57.59 118.69L53.3 118.57L52.52 120.7L50.82 120.65L54.5 111.15L56.77 111.21L60.03 120.91L58.26 120.86H58.27ZM53.8 117.26L57.17 117.36L55.81 112.98L55.63 112.2L55.4 112.97L53.8 117.26ZM58.2 107.74L56.24 109.84L54.81 109.8L56.26 107.69L58.2 107.74Z" fill="#F1F2F2"/>
<path d="M70.23 118.29C69.17 117.65 68.43 116.58 68.01 115.1C67.59 113.6 67.67 112.31 68.26 111.23C68.85 110.14 69.8 109.41 71.09 109.05C72.14 108.75 73.09 108.75 73.92 109.05C74.76 109.34 75.44 109.91 75.96 110.75L74.47 111.35C73.74 110.36 72.74 110.05 71.47 110.4C70.6 110.65 69.99 111.14 69.66 111.87C69.32 112.61 69.31 113.52 69.62 114.61C69.93 115.72 70.43 116.51 71.1 116.98C71.78 117.45 72.55 117.57 73.42 117.33C74.82 116.94 75.52 116.05 75.52 114.68L77.06 114.43C77.09 115.49 76.81 116.39 76.24 117.14C75.66 117.89 74.85 118.42 73.79 118.72C72.48 119.09 71.3 118.95 70.24 118.3L70.23 118.29Z" fill="#F1F2F2"/>
<path d="M83.1 104.11L84.56 103.32L89.11 111.76L87.65 112.55L85.64 108.81L81.55 111.01L83.56 114.75L82.1 115.54L77.55 107.1L79.01 106.31L80.88 109.78L84.97 107.58L83.1 104.11Z" fill="#F1F2F2"/>
<path d="M98.25 104.62L96.29 103.46L93.03 106.24L93.88 108.35L92.59 109.45L88.96 99.94L90.69 98.46L99.61 103.46L98.26 104.61L98.25 104.62ZM92.52 104.95L95.09 102.76L91.14 100.43L90.48 99.97L90.82 100.7L92.51 104.95H92.52Z" fill="#F1F2F2"/>
<path d="M98.44 89.99L99.5 90.87L97.6 93.16L103.93 98.4L102.86 99.69L96.53 94.45L94.63 96.74L93.57 95.86L98.43 89.99H98.44Z" fill="#F1F2F2"/>
<path d="M110.76 87.96L108.53 87.54L106.41 91.27L107.92 92.96L107.08 94.44L100.42 86.72L101.55 84.74L111.65 86.42L110.77 87.96H110.76ZM105.47 90.22L107.14 87.29L102.63 86.44L101.86 86.23L102.43 86.8L105.47 90.23V90.22Z" fill="#F1F2F2"/>
<path d="M110.89 63.75C112.519 63.75 113.84 62.4292 113.84 60.8C113.84 59.1708 112.519 57.85 110.89 57.85C109.261 57.85 107.94 59.1708 107.94 60.8C107.94 62.4292 109.261 63.75 110.89 63.75Z" fill="#F1F2F2"/>
<path d="M2.95001 63.75C4.57925 63.75 5.89999 62.4292 5.89999 60.8C5.89999 59.1708 4.57925 57.85 2.95001 57.85C1.32077 57.85 0 59.1708 0 60.8C0 62.4292 1.32077 63.75 2.95001 63.75Z" fill="#F1F2F2"/>
<path d="M81.81 75.78C82 75.46 82.19 75.14 82.37 74.82C82.43 74.72 82.48 74.61 82.54 74.51C82.68 74.24 82.82 73.97 82.96 73.69C83.03 73.54 83.11 73.39 83.18 73.24C83.28 73.02 83.38 72.79 83.48 72.57C83.57 72.37 83.66 72.17 83.74 71.97C83.8 71.82 83.86 71.67 83.92 71.53C84.3 70.58 84.63 69.61 84.91 68.61C84.94 68.5 84.97 68.39 85 68.29C85.07 68.02 85.14 67.74 85.2 67.47C85.24 67.3 85.28 67.13 85.32 66.96C85.37 66.72 85.42 66.48 85.46 66.24C85.5 66.02 85.54 65.8 85.58 65.57C85.61 65.37 85.65 65.16 85.68 64.96C85.72 64.67 85.76 64.39 85.79 64.1C85.81 63.95 85.83 63.79 85.84 63.64C85.88 63.24 85.91 62.85 85.93 62.45C85.93 62.4 85.93 62.34 85.94 62.29C85.96 61.8 85.98 61.32 85.98 60.83C85.98 44.81 72.95 31.78 56.93 31.78C40.91 31.78 27.88 44.81 27.88 60.83C27.88 61.32 27.9 61.81 27.92 62.29C27.92 62.34 27.92 62.4 27.93 62.45C27.95 62.85 27.98 63.25 28.02 63.64C28.03 63.79 28.05 63.94 28.07 64.1C28.1 64.39 28.14 64.68 28.18 64.96C28.21 65.16 28.24 65.37 28.27 65.57C28.31 65.8 28.35 66.02 28.39 66.24C28.44 66.48 28.48 66.72 28.53 66.95C28.57 67.13 28.61 67.3 28.65 67.48C28.71 67.75 28.78 68.02 28.85 68.29C28.88 68.41 28.92 68.53 28.95 68.64C29.22 69.61 29.54 70.56 29.91 71.48C29.98 71.65 30.04 71.82 30.11 71.98C30.19 72.17 30.28 72.36 30.36 72.55C30.46 72.79 30.57 73.02 30.68 73.25C30.75 73.39 30.82 73.53 30.89 73.68C31.03 73.96 31.17 74.25 31.32 74.52C31.37 74.62 31.42 74.71 31.48 74.8C31.66 75.13 31.85 75.46 32.05 75.79C32.08 75.83 32.1 75.87 32.13 75.92C32.89 77.16 33.73 78.35 34.67 79.47L35.61 80.59L35.64 80.54C38.63 83.76 42.34 86.3 46.51 87.91V87.93L47.23 88.19C47.41 88.25 47.6 88.3 47.78 88.37C48.05 88.46 48.33 88.55 48.61 88.63C48.88 88.71 49.15 88.79 49.42 88.86C49.72 88.94 50.03 89.01 50.34 89.09C50.57 89.14 50.8 89.2 51.04 89.25C51.56 89.36 52.09 89.45 52.62 89.53C52.83 89.56 53.05 89.58 53.26 89.61C53.61 89.65 53.96 89.69 54.31 89.73C54.45 89.74 54.58 89.76 54.71 89.77L55.37 89.81C55.37 89.81 55.44 89.81 55.48 89.81L55.93 89.83C56.26 89.83 56.6 89.84 56.93 89.84C57.26 89.84 57.6 89.84 57.96 89.82L58.38 89.8C58.38 89.8 58.46 89.8 58.5 89.8L59.17 89.76C59.3 89.75 59.44 89.73 59.57 89.72C59.92 89.69 60.26 89.65 60.6 89.61C60.81 89.58 61.02 89.56 61.23 89.53C61.78 89.45 62.32 89.35 62.85 89.24C63.02 89.21 63.18 89.16 63.35 89.12C63.73 89.03 64.11 88.94 64.48 88.84C64.72 88.77 64.97 88.7 65.21 88.63C65.48 88.55 65.76 88.46 66.03 88.37C66.23 88.3 66.43 88.25 66.63 88.18L67.35 87.92V87.89C71.52 86.28 75.22 83.74 78.21 80.52L78.24 80.57L79.18 79.45C80.12 78.33 80.96 77.14 81.72 75.91C81.75 75.86 81.78 75.81 81.81 75.76V75.78ZM83.76 62.3C83.74 62.67 83.71 63.03 83.68 63.39C83.67 63.5 83.66 63.61 83.65 63.72C83.62 64.02 83.58 64.32 83.54 64.61C83.52 64.74 83.5 64.88 83.48 65.01C83.43 65.31 83.38 65.61 83.32 65.91C83.27 66.18 83.21 66.46 83.15 66.73C83.11 66.92 83.06 67.11 83.02 67.31C82.96 67.54 82.9 67.76 82.84 67.98C82.8 68.14 82.75 68.29 82.71 68.45C82.64 68.68 82.57 68.9 82.5 69.12C82.45 69.28 82.4 69.43 82.34 69.59C82.27 69.81 82.19 70.02 82.11 70.23C82.04 70.42 81.96 70.61 81.89 70.79C81.82 70.98 81.74 71.16 81.67 71.34C81.52 71.69 81.37 72.03 81.2 72.37C81.16 72.46 81.11 72.55 81.06 72.64C80.92 72.93 80.77 73.22 80.62 73.5C80.58 73.57 80.54 73.64 80.5 73.71C80.32 74.03 80.14 74.35 79.95 74.67C79.94 74.69 79.92 74.72 79.91 74.74C79.46 75.48 78.97 76.2 78.45 76.89L75.45 72.3C77.61 68.84 78.77 64.88 78.77 60.78C78.77 48.75 68.98 38.96 56.95 38.96C44.92 38.96 35.13 48.75 35.13 60.78C35.13 64.88 36.28 68.84 38.44 72.3L35.44 76.89C34.92 76.2 34.43 75.48 33.98 74.73C33.97 74.71 33.96 74.7 33.95 74.68C33.75 74.36 33.57 74.03 33.38 73.69C33.34 73.63 33.31 73.56 33.27 73.5C33.11 73.21 32.96 72.91 32.81 72.61C32.77 72.53 32.73 72.45 32.69 72.36C32.52 72.01 32.36 71.65 32.2 71.29C32.13 71.13 32.07 70.97 32.01 70.82C31.93 70.62 31.85 70.41 31.77 70.21C31.69 70 31.62 69.79 31.55 69.59C31.49 69.43 31.44 69.27 31.39 69.1C31.32 68.88 31.25 68.66 31.18 68.44C31.13 68.28 31.09 68.12 31.04 67.96C30.98 67.74 30.92 67.52 30.86 67.3C30.81 67.1 30.77 66.9 30.72 66.7C30.66 66.44 30.6 66.18 30.55 65.92C30.49 65.61 30.43 65.31 30.39 65C30.37 64.87 30.35 64.74 30.33 64.6C30.29 64.3 30.25 64 30.22 63.7C30.21 63.59 30.2 63.48 30.19 63.37C30.16 63.01 30.13 62.65 30.11 62.28C30.11 62.23 30.11 62.18 30.11 62.13C30.09 61.69 30.08 61.24 30.08 60.79C30.08 45.97 42.14 33.91 56.96 33.91C71.78 33.91 83.84 45.97 83.84 60.79C83.84 61.24 83.83 61.68 83.81 62.13C83.81 62.18 83.81 62.23 83.81 62.28L83.76 62.3ZM69.17 62.78L60.02 48.8C65.39 50.18 69.33 55.07 69.33 60.81C69.33 61.47 69.27 62.13 69.17 62.78ZM58.4 46.33L56.92 44.07L55.44 46.33C48.05 47.08 42.34 53.33 42.34 60.82C42.34 62.34 42.59 63.83 43.05 65.26L39.74 70.31C38.13 67.41 37.28 64.16 37.28 60.81C37.28 49.98 46.09 41.16 56.92 41.16C67.75 41.16 76.57 49.97 76.57 60.81C76.57 64.16 75.72 67.41 74.11 70.31L70.8 65.26C71.26 63.83 71.51 62.34 71.51 60.81C71.51 53.32 65.8 47.07 58.41 46.32L58.4 46.33ZM44.67 62.78C44.57 62.13 44.51 61.48 44.51 60.82C44.51 55.08 48.45 50.19 53.82 48.81L44.67 62.78ZM65.17 86.39C65.09 86.42 65.01 86.44 64.93 86.47C64.79 86.52 64.64 86.55 64.49 86.6C64.03 86.73 63.57 86.86 63.1 86.97C62.82 87.04 62.53 87.11 62.25 87.16C62.04 87.2 61.83 87.24 61.62 87.27V74.87L65.16 80.28V86.39H65.17ZM59.46 87.57C59.46 87.57 59.45 87.57 59.44 87.57C59.07 87.6 58.71 87.63 58.34 87.65H58.28C57.87 87.67 57.46 87.68 57.05 87.68C56.97 87.68 56.9 87.68 56.82 87.68C56.4 87.68 55.98 87.67 55.57 87.65H55.51C55.14 87.63 54.78 87.6 54.42 87.56C54.41 87.56 54.4 87.56 54.38 87.56V71.55L56.92 67.66L59.46 71.54V87.55V87.57ZM52.21 87.27C51.99 87.23 51.76 87.2 51.54 87.15C51.42 87.13 51.3 87.1 51.18 87.07C50.5 86.92 49.83 86.75 49.17 86.55C49.08 86.52 48.99 86.5 48.9 86.47C48.82 86.45 48.74 86.42 48.67 86.39V80.28L52.21 74.87V87.26V87.27ZM67.35 85.59V79.64L56.92 63.71L46.5 79.64V85.59C42.79 84.02 39.5 81.64 36.86 78.68L56.92 48.03L76.98 78.68C74.34 81.64 71.06 84.02 67.35 85.59Z" fill="#F1F2F2"/>
</svg>
